<svg width="19" height="20" viewBox="0 0 19 20" fill="none" xmlns="http://www.w3.org/2000/svg">
<path fill-rule="evenodd" clip-rule="evenodd" d="M4.06697 4.89234C4.36556 4.59374 4.84968 4.59374 5.14828 4.89234L9.19525 8.93931L13.2422 4.89234C13.5408 4.59374 14.0249 4.59374 14.3235 4.89234C14.6221 5.19094 14.6221 5.67506 14.3235 5.97365L10.2766 10.0206L14.3235 14.0676C14.6221 14.3662 14.6221 14.8503 14.3235 15.1489C14.0249 15.4475 13.5408 15.4475 13.2422 15.1489L9.19525 11.1019L5.14828 15.1489C4.84968 15.4475 4.36556 15.4475 4.06697 15.1489C3.76837 14.8503 3.76837 14.3662 4.06697 14.0676L8.11394 10.0206L4.06697 5.97365C3.76837 5.67506 3.76837 5.19094 4.06697 4.89234Z" fill="black" fill-opacity="0.63"/>
</svg>
